<svg xmlns="http://www.w3.org/2000/svg" width="512" height="512" viewBox="0 0 512 512" version="1.1">
	<path d="M 31.764 1.996 C 26.871 3.469, 22.248 6.959, 20.606 10.417 C 19.145 13.496, 19 34.886, 19.002 246.651 C 19.003 466.357, 19.102 479.694, 20.752 482.929 C 21.713 484.815, 24.229 487.740, 26.343 489.429 L 30.186 492.500 252.843 492.785 C 375.304 492.942, 476.972 492.807, 478.771 492.486 C 482.522 491.816, 488.425 487.013, 490.551 482.901 C 492.752 478.645, 492.737 15.326, 490.536 11.069 C 488.510 7.152, 483.648 3.274, 479.219 2.044 C 474.688 0.786, 35.941 0.738, 31.764 1.996 M 235 32.103 C 207.289 35.218, 173.874 46.528, 148.916 61.238 C 127.614 73.793, 110.347 88.078, 96.373 104.708 C 88.220 114.409, 85.446 116.912, 75.727 123.332 C 60.925 133.110, 56.202 138.243, 52.067 149.045 C 50.286 153.695, 45.878 164.451, 42.270 172.946 L 35.710 188.393 35.551 203.946 C 35.464 212.501, 34.795 224.225, 34.065 230 C 32.473 242.602, 33.168 270.277, 35.473 286 C 41.554 327.477, 58.970 368.325, 82.741 396.860 C 125.613 448.324, 183.037 477.790, 246 480.632 C 292.701 482.740, 347.586 465.242, 386.002 435.999 C 429.519 402.872, 460.604 354.609, 472.382 301.885 C 477.911 277.134, 479.751 245.766, 476.970 223.670 C 476.293 218.291, 476.010 210.877, 476.341 207.195 C 476.673 203.513, 477.208 197.575, 477.531 194 C 478.091 187.790, 477.909 187.055, 473.429 177.500 C 470.850 172, 466.350 161.711, 463.427 154.636 C 460.505 147.560, 456.980 140.057, 455.594 137.962 C 452.729 133.634, 444.102 127.185, 432.283 120.539 C 425.647 116.807, 422.689 114.255, 415.702 106.232 C 385.806 71.905, 337.180 43.275, 294.945 35.134 C 274.486 31.191, 252.846 30.096, 235 32.103 M 241.255 46.043 C 205.256 48.995, 164.081 65.579, 131.869 90.100 C 121.777 97.782, 108.240 110.658, 101.967 118.542 C 97.610 124.017, 95.645 125.506, 87.267 129.681 C 73.736 136.424, 67.104 142.743, 63.020 152.785 C 61.294 157.028, 57.096 167.025, 53.691 175 L 47.500 189.500 47.768 200 C 47.915 205.775, 47.504 219.999, 46.855 231.609 C 44.335 276.658, 51.345 312.470, 70.087 350.294 C 80.652 371.616, 92.881 388.590, 110.131 405.875 C 140.466 436.272, 179.588 456.543, 222.500 464.097 C 233.033 465.952, 239.105 466.383, 254.500 466.371 C 274.750 466.355, 285.134 465.100, 303.133 460.492 C 363.390 445.068, 415.223 402.249, 443.541 344.500 C 459.634 311.681, 465.999 278.696, 464.672 235 C 464.202 219.504, 464.409 211.960, 465.522 204.096 C 467.282 191.658, 467.084 190.700, 459.377 174.402 C 456.281 167.856, 452.663 159.633, 451.337 156.129 C 445.597 140.963, 441.144 136.657, 422.925 128.661 C 415.331 125.328, 413.672 124.098, 408.430 117.917 C 402.118 110.475, 391.900 100.925, 380.500 91.814 C 347.651 65.560, 308.798 49.469, 269.951 46.031 C 257.412 44.921, 254.929 44.922, 241.255 46.043 M 241.357 67.090 C 198.984 70.148, 152.903 92.369, 122 124.645 C 106.130 141.221, 101.228 149.058, 91.502 173.408 C 83.983 192.235, 79.805 207.681, 77.592 224.842 C 73.672 255.236, 76.978 284.273, 87.126 308.558 C 90.969 317.756, 91.226 319.019, 91.985 332.385 C 92.578 342.839, 93.336 347.951, 94.907 352.096 C 99.676 364.677, 117.368 387.277, 133.184 400.991 C 156.330 421.062, 188.880 436.869, 220.074 443.186 C 230.173 445.231, 234.286 445.496, 255.500 445.465 C 276.615 445.435, 280.762 445.158, 290 443.161 C 336.483 433.115, 377.060 407.679, 403.608 371.944 C 409.035 364.639, 415.546 352.965, 417.136 347.686 C 417.664 345.934, 418.682 337.975, 419.397 330 C 420.508 317.619, 421.158 314.455, 423.842 308.348 C 438.421 275.184, 438.484 226.896, 424.003 184 C 413.875 153.999, 401.742 135.340, 380.150 116.557 C 344.746 85.760, 309.341 70.264, 267 67.035 C 259.575 66.468, 253.275 66.068, 253 66.145 C 252.725 66.222, 247.486 66.647, 241.357 67.090 M 233.834 117.567 C 191.611 125.207, 154.584 153.576, 136.033 192.500 C 122.087 221.760, 118.362 258.291, 126.142 289.500 C 138.568 339.347, 181.298 379.850, 231.790 389.639 C 243.531 391.916, 265.544 391.901, 277.374 389.609 C 301.862 384.863, 321.830 375.169, 341.170 358.635 C 363.815 339.274, 378.961 313.151, 385.599 282 C 388.080 270.354, 388.112 243.183, 385.659 230.500 C 381.658 209.811, 372.819 188.395, 361.954 173.062 C 341.644 144.399, 309.067 123.207, 276.615 117.548 C 265.717 115.648, 244.388 115.657, 233.834 117.567 M 247 129.649 C 201.666 133.760, 160.880 164.186, 143.917 206.547 C 126.187 250.826, 134.392 301.843, 164.359 333.657 C 168.681 338.246, 172.531 342, 172.914 342 C 173.297 342, 174.159 338.735, 174.829 334.745 C 177.255 320.306, 182.451 313.434, 195.496 307.406 C 208.065 301.599, 211 297.830, 211 287.500 C 211 278.328, 207.863 272.808, 199.273 266.862 C 193.371 262.776, 189.565 255.969, 189.594 249.546 C 189.612 245.506, 190.465 242.964, 193.876 236.791 C 196.793 231.511, 199.031 225.462, 200.977 217.594 C 204.495 203.367, 207.652 197.338, 215.987 188.927 C 226.020 178.802, 237.595 174.034, 252.201 174.012 C 262.679 173.996, 268.985 175.457, 278.928 180.205 C 285.850 183.510, 288.994 185.860, 296.531 193.365 C 307.181 203.968, 311.299 210.743, 316.445 226.127 C 319.051 233.918, 320 238.473, 320 243.199 C 320 254.079, 317.997 258.027, 306.339 270.121 C 299.992 276.706, 296 281.647, 296 282.920 C 296 284.061, 297.526 286.684, 299.392 288.748 C 301.257 290.813, 303.845 294.752, 305.142 297.501 C 307.179 301.819, 308.401 302.977, 314.114 306 C 330.387 314.611, 333.343 318.886, 336.513 338.397 L 337.146 342.293 343.114 336.397 C 363.661 316.096, 376.378 281.291, 374.683 250 C 372.196 204.089, 349.870 167.319, 310.763 144.726 C 291.595 133.653, 266.995 127.836, 247 129.649 M 78.359 160.750 C 69.380 174.061, 63.784 186.945, 59.114 205.057 C 54.893 221.429, 53.666 231.382, 53.695 249 C 53.743 277.651, 60.282 303.963, 74.635 333.261 L 78.181 340.500 77.714 329.500 C 77.282 319.345, 76.896 317.617, 72.690 307 C 65.222 288.149, 61.176 262.776, 62.436 242.698 C 63.834 220.422, 67.174 205.644, 76.041 182.500 C 80.882 169.865, 87.422 149, 86.543 149 C 86.401 149, 82.718 154.287, 78.359 160.750 M 434.177 176.419 C 439.048 190.950, 443.929 207.131, 445.025 212.378 C 451.913 245.361, 448.877 281.595, 436.861 309.827 C 433.514 317.691, 432.707 320.850, 432.362 327.454 C 432.130 331.879, 431.783 337.525, 431.590 340 C 431.285 343.904, 431.379 344.169, 432.294 342 C 432.875 340.625, 436.239 333.200, 439.770 325.500 C 450.465 302.180, 454.994 285.507, 457.058 261.856 C 460.418 223.356, 447.421 172.515, 429.166 152.750 C 427.769 151.238, 426.332 150, 425.973 150 C 425.615 150, 429.306 161.889, 434.177 176.419 M 250.609 193.585 C 238.435 207.622, 236.617 209.160, 226.321 214.129 C 220.553 216.913, 215.065 220.322, 213.657 221.996 C 210.837 225.347, 208 236.268, 208 243.769 C 208 252.197, 210.600 257.800, 217.721 264.716 C 224.688 271.484, 226 274.371, 226 282.933 C 226 287.543, 225.368 289.426, 221.886 295.188 C 218.090 301.472, 217.826 302.363, 218.473 306.748 C 219.390 312.959, 225.775 332.743, 227.134 333.583 C 227.715 333.942, 229.610 333.197, 231.345 331.929 C 236.404 328.230, 250 315.701, 250 314.738 C 250 314.254, 247.075 311.046, 243.500 307.609 C 239.925 304.172, 237 300.852, 237 300.232 C 237 298.608, 241.933 300.486, 250.232 305.271 L 257.051 309.202 263.345 305.101 C 273.184 298.690, 274.563 299.670, 267.648 308.159 L 263.297 313.501 274.223 322.874 C 280.232 328.029, 285.898 332.304, 286.814 332.373 C 288.103 332.471, 289.204 330.006, 291.674 321.500 C 297.496 301.443, 297.379 299.396, 289.954 291.544 C 282.176 283.320, 283.230 278.937, 295.979 266.500 C 306.107 256.620, 308.986 251.190, 308.968 242 C 308.960 237.545, 308.301 234.084, 306.875 231 C 305.731 228.525, 303.939 224.061, 302.893 221.080 C 300.144 213.247, 296.835 208.055, 291.283 202.861 C 281.272 193.498, 272.805 190, 260.149 190 C 254.015 190, 253.574 190.166, 250.609 193.585 M 252.107 318.254 C 250.241 318.939, 248.108 320.423, 247.368 321.550 C 246.180 323.359, 246.433 324.459, 249.516 330.894 L 253.012 338.187 249.520 352.350 C 247.600 360.140, 245.745 368.582, 245.398 371.110 L 244.768 375.708 251.134 376.155 C 254.635 376.401, 260.875 376.355, 265 376.051 C 273.990 375.390, 273.761 377.357, 267.571 354.042 L 263.238 337.717 266.222 331.339 C 269.461 324.417, 269.408 321.324, 266.015 319.228 C 262.945 317.331, 255.954 316.842, 252.107 318.254" stroke="none" fill="black" fill-rule="evenodd"/>
</svg>